<svg id="Layer_1" data-name="Layer 1" xmlns="http://www.w3.org/2000/svg" viewBox="0 0 104.72 33"><defs><style>.cls-1{fill:#72acf2;}.cls-2{fill:#aac6f9;}.cls-3{fill:#28c5cc;}.cls-4{fill:#ffac1e;}.cls-5{fill:#0a3b87;}</style></defs><title>logott</title><rect class="cls-1" x="39.68" y="21.32" width="59.18" height="1.23"/><rect class="cls-2" x="39.68" y="23.56" width="59.18" height="1.23"/><rect class="cls-1" x="39.68" y="25.8" width="59.18" height="1.23"/><path class="cls-3" d="M94.36,31.85H38.45a1.86,1.86,0,0,1,0-3.71H94.36a4,4,0,0,0,0-7.94H38.45a1.85,1.85,0,0,1,0-3.7H94.36a7.68,7.68,0,0,1,0,15.35Z"/><rect class="cls-1" x="39.76" y="5.97" width="59.18" height="1.23"/><rect class="cls-2" x="39.76" y="8.21" width="59.18" height="1.23"/><rect class="cls-1" x="39.76" y="10.45" width="59.18" height="1.23"/><path class="cls-3" d="M44.27,16.5h55.91a1.85,1.85,0,0,0,0-3.7H44.27a4,4,0,0,1,0-7.94h55.91a1.86,1.86,0,0,0,0-3.71H44.27a7.68,7.68,0,0,0,0,15.35Z"/><path class="cls-2" d="M63.09,10.34A9.14,9.14,0,1,1,54,1.2,9.14,9.14,0,0,1,63.09,10.34Z"/><path class="cls-4" d="M54,19.48a9.14,9.14,0,1,1,9.14-9.14A9.14,9.14,0,0,1,54,19.48ZM54,3.3a7,7,0,1,0,7,7A7.05,7.05,0,0,0,54,3.3Z"/><path class="cls-5" d="M56.49,10.34A2.54,2.54,0,1,1,54,7.8a2.63,2.63,0,0,1,.7.1,1.33,1.33,0,1,0,1.61,1.38A2.49,2.49,0,0,1,56.49,10.34Z"/><path class="cls-2" d="M75.52,10.34A9.14,9.14,0,1,0,84.66,1.2,9.14,9.14,0,0,0,75.52,10.34Z"/><path class="cls-4" d="M75.52,10.34a9.14,9.14,0,1,1,9.13,9.13A9.14,9.14,0,0,1,75.52,10.34Zm2.09,0a7,7,0,1,0,7-7A7.05,7.05,0,0,0,77.61,10.34Z"/><path class="cls-5" d="M82.12,10.34A2.54,2.54,0,1,0,84.65,7.8a2.32,2.32,0,0,0-.7.1,1.33,1.33,0,1,1-1.61,1.38A2.64,2.64,0,0,0,82.12,10.34Z"/><rect class="cls-4" x="63.09" y="9.29" width="12.43" height="2.09"/><polygon class="cls-4" points="62.14 21.32 69.4 16.52 76.66 21.32 62.14 21.32"/><path class="cls-4" d="M24.18,22.06a1.54,1.54,0,0,0-1.52-1.52,1.52,1.52,0,0,0-1.52,1.52,1.5,1.5,0,0,0,1.52,1.52,1.47,1.47,0,0,0,1.07-.45A1.45,1.45,0,0,0,24.18,22.06Z"/><path class="cls-4" d="M30.3,14.35a1.43,1.43,0,0,0,.44,1.07,1.74,1.74,0,0,0,.27.22,1.74,1.74,0,0,0-.27.22,1.53,1.53,0,1,0,2.15,0,1.74,1.74,0,0,0-.27-.22,1.74,1.74,0,0,0,.27-.22,1.5,1.5,0,0,0,0-2.14,1.53,1.53,0,0,0-2.15,0A1.43,1.43,0,0,0,30.3,14.35Z"/><path class="cls-3" d="M25.44,6.74a1.52,1.52,0,0,0-1.52-1.52,1.52,1.52,0,1,0,0,3,1.54,1.54,0,0,0,1.52-1.52Z"/><path class="cls-4" d="M25.44,9.79a1.52,1.52,0,0,0-1.52-1.52A1.5,1.5,0,0,0,22.4,9.79a1.52,1.52,0,0,0,3,0Z"/><path class="cls-3" d="M23.54,4.11a3.45,3.45,0,0,1,1.81,1,3.47,3.47,0,0,1,1,2.55v.12h1.69V11.5H23.54v.14a3.54,3.54,0,0,1,1.81,1,3.47,3.47,0,0,1,1,2.54v.13h1.69v4H22.33v.14A3.59,3.59,0,0,1,25.2,23v.12h2.89v2.09H19.51c0,.08,0,.16,0,.23A3.62,3.62,0,0,1,16.23,29H28.8a1.86,1.86,0,0,0,1.36-.55,1.9,1.9,0,0,0,.54-1.36V25.28h0V21.23a1.88,1.88,0,0,0-1.45-1.86h1.45v-.66a2,2,0,0,1-.57-.4,1.87,1.87,0,0,1,0-2.63,1.77,1.77,0,0,1-.5-1.27,1.86,1.86,0,0,1,.54-1.34,2,2,0,0,1,.46-.33,1.81,1.81,0,0,0-.44-.69,1.59,1.59,0,0,0-.27-.18h.82v-6a1.83,1.83,0,0,0-.55-1.35A1.8,1.8,0,0,0,28.85,4H23.54Z"/><path class="cls-4" d="M16.83,10.94a1.52,1.52,0,0,0,1.52,1.52,1.54,1.54,0,0,0,1.52-1.52,1.52,1.52,0,0,0-1.52-1.52,1.54,1.54,0,0,0-1.52,1.52Z"/><path class="cls-4" d="M10.71,18.65a1.46,1.46,0,0,0-.44-1.07,1.74,1.74,0,0,0-.27-.22,1.74,1.74,0,0,0,.27-.22,1.5,1.5,0,0,0,.44-1.08,1.54,1.54,0,0,0-1.52-1.52A1.44,1.44,0,0,0,8.12,15a1.45,1.45,0,0,0-.45,1.07,1.47,1.47,0,0,0,.45,1.08,1.32,1.32,0,0,0,.26.22,1.32,1.32,0,0,0-.26.22,1.5,1.5,0,0,0,0,2.14,1.46,1.46,0,0,0,1.07.44,1.5,1.5,0,0,0,1.08-.44A1.46,1.46,0,0,0,10.71,18.65Z"/><path class="cls-3" d="M15.57,26.26a1.5,1.5,0,0,0,1.52,1.52,1.51,1.51,0,1,0-1.52-1.52Z"/><path class="cls-4" d="M15.57,23.21a1.5,1.5,0,0,0,1.52,1.52,1.52,1.52,0,0,0,1.52-1.52,1.54,1.54,0,0,0-1.52-1.52,1.45,1.45,0,0,0-1.07.45A1.47,1.47,0,0,0,15.57,23.21Z"/><path class="cls-3" d="M17.47,28.89a3.59,3.59,0,0,1-2.87-3.53v-.12H12.92V21.5h4.55v-.14a3.56,3.56,0,0,1-1.82-1,3.47,3.47,0,0,1-1.05-2.54V17.7H12.92v-4h5.75v-.14A3.6,3.6,0,0,1,15.81,10V9.88H12.92V7.79H21.5a1.85,1.85,0,0,1,0-.23,3.48,3.48,0,0,1,1-2.44A3.46,3.46,0,0,1,24.78,4H12.2a1.83,1.83,0,0,0-1.35.55,1.87,1.87,0,0,0-.55,1.36V7.72h0v4.05a1.89,1.89,0,0,0,.54,1.36,1.84,1.84,0,0,0,.9.5H10.27v.66a2,2,0,0,1,.57.4,1.87,1.87,0,0,1,0,2.63,1.89,1.89,0,0,1-.05,2.61,1.73,1.73,0,0,1-.45.33,1.78,1.78,0,0,0,.43.69,1.67,1.67,0,0,0,.28.18h-.82v6a1.86,1.86,0,0,0,.54,1.35,1.82,1.82,0,0,0,1.35.55h5.31Z"/></svg>