<svg id="Layer_1" data-name="Layer 1" xmlns="http://www.w3.org/2000/svg" viewBox="0 0 104.72 33"><defs><style>.cls-1{fill:#72acf2;}.cls-2{fill:#aac6f9;}.cls-3{fill:#28c5cc;}.cls-4{fill:#ffac1e;}.cls-5{fill:#0a3b87;}.cls-6{fill:none;}</style></defs><title>logo</title><rect class="cls-1" x="16.38" y="21.83" width="42.88" height="0.89"/><rect class="cls-2" x="16.38" y="23.45" width="42.88" height="0.89"/><rect class="cls-1" x="16.38" y="25.08" width="42.88" height="0.89"/><path class="cls-3" d="M56,29.46H15.48a1.34,1.34,0,0,1,0-2.68H56A2.88,2.88,0,0,0,56,21H15.48a1.34,1.34,0,0,1,0-2.68H56a5.56,5.56,0,0,1,0,11.12Z"/><rect class="cls-1" x="16.43" y="10.71" width="42.88" height="0.89"/><rect class="cls-2" x="16.43" y="12.33" width="42.88" height="0.89"/><rect class="cls-1" x="16.43" y="13.96" width="42.88" height="0.89"/><path class="cls-3" d="M19.7,18.34H60.21a1.34,1.34,0,0,0,0-2.68H19.7a2.88,2.88,0,1,1,0-5.76H60.21a1.34,1.34,0,0,0,0-2.68H19.7a5.56,5.56,0,1,0,0,11.12Z"/><path class="cls-2" d="M34.28,8.74a5.2,5.2,0,1,1-5.2-5.2A5.2,5.2,0,0,1,34.28,8.74Z"/><path class="cls-4" d="M29.08,13.94a5.2,5.2,0,1,1,5.2-5.2A5.2,5.2,0,0,1,29.08,13.94Zm0-9.21a4,4,0,1,0,4,4A4,4,0,0,0,29.08,4.73Z"/><path class="cls-5" d="M30.52,8.74A1.44,1.44,0,1,1,29.08,7.3a1.75,1.75,0,0,1,.4,0,.77.77,0,0,0-.6.74.76.76,0,0,0,.76.76.75.75,0,0,0,.75-.71A1.35,1.35,0,0,1,30.52,8.74Z"/><path class="cls-2" d="M41.35,8.74a5.21,5.21,0,1,0,5.21-5.2A5.2,5.2,0,0,0,41.35,8.74Z"/><path class="cls-4" d="M41.35,8.74a5.21,5.21,0,1,1,5.21,5.2A5.21,5.21,0,0,1,41.35,8.74Zm1.2,0a4,4,0,1,0,4-4A4,4,0,0,0,42.55,8.74Z"/><path class="cls-5" d="M45.11,8.74A1.45,1.45,0,1,0,46.55,7.3a1.67,1.67,0,0,0-.39,0,.77.77,0,0,1,.6.74.76.76,0,0,1-1.52.05A1.5,1.5,0,0,0,45.11,8.74Z"/><rect class="cls-4" x="34.28" y="8.15" width="7.07" height="1.19"/><polygon class="cls-4" points="33.74 14.99 37.87 12.26 42.01 14.99 33.74 14.99"/><polygon class="cls-3" points="71.98 7.95 73.74 9.43 75.7 7.77 73.45 5.89 71.68 7.37 69.92 5.89 67.97 7.53 70.21 9.43 71.98 7.95"/><path class="cls-6" d="M68.05,24.45a11,11,0,0,1-1.25,3l-1.3.46a2.29,2.29,0,0,0,.25-.5,4.69,4.69,0,0,0,.23-.77,6.89,6.89,0,0,0,.12-.94,3.53,3.53,0,0,0-.06-.93,2.11,2.11,0,0,0-.31-.79,1.41,1.41,0,0,0-.65-.52c-.23-.09-.59-.2-1.06-.33a13.85,13.85,0,0,0-2.67-.28H57.23a4.07,4.07,0,0,1-1.11-.2A5.64,5.64,0,0,1,55,22.15a8.31,8.31,0,0,1-1-.75,5.71,5.71,0,0,1-.77-.88,3.64,3.64,0,0,1-.48-.94,2.25,2.25,0,0,1-.14-.9,2.83,2.83,0,0,1,.21-1.34,2.44,2.44,0,0,1,.7-.93,3.14,3.14,0,0,1,1-.55,4.2,4.2,0,0,1,1.21-.2H56a3.25,3.25,0,0,0-.16,3,.48.48,0,0,0-.22.26.39.39,0,0,0-.06.31.51.51,0,0,0,.17.31,1.16,1.16,0,0,0,.41.26,2.22,2.22,0,0,0,.64.16h.05a5.17,5.17,0,0,0,6.45,0,13.41,13.41,0,0,1,1.66.21,6.12,6.12,0,0,1,2,.74A2.65,2.65,0,0,1,68,22.33,4.05,4.05,0,0,1,68.05,24.45Z"/><path class="cls-3" d="M74.9,14.38a2.17,2.17,0,0,1-.12.89,4.54,4.54,0,0,1-.49.92,5.71,5.71,0,0,1-.77.87,5.57,5.57,0,0,1-.94.74,4.7,4.7,0,0,1-1.06.51,3.26,3.26,0,0,1-1.08.2H69.29v0H67.67v0H56.35a1.14,1.14,0,0,0-.44.1l-.06,0a3.25,3.25,0,0,1,.16-3H69.29v0h1.62a.84.84,0,0,0,.73-.27,1,1,0,0,0,.12-.68,2.37,2.37,0,0,0-.38-.86,3.38,3.38,0,0,0-.76-.8L73,10.76c.22.24.43.5.65.78a6.7,6.7,0,0,1,.6.87,5.18,5.18,0,0,1,.45.95A3.59,3.59,0,0,1,74.9,14.38Z"/><polygon class="cls-3" points="86.87 7.95 88.63 9.43 90.59 7.77 88.34 5.89 86.57 7.37 84.81 5.89 82.86 7.53 85.1 9.43 86.87 7.95"/><path class="cls-6" d="M82.94,24.45a11,11,0,0,1-1.25,3l-1.31.46a2.24,2.24,0,0,0,.26-.5,3.89,3.89,0,0,0,.22-.77,4.74,4.74,0,0,0,.12-.94,3.54,3.54,0,0,0,0-.93,2.29,2.29,0,0,0-.31-.79,1.47,1.47,0,0,0-.65-.52c-.24-.09-.59-.2-1.06-.33a13.88,13.88,0,0,0-2.68-.28H72.11a3.93,3.93,0,0,1-1.1-.2,5.64,5.64,0,0,1-1.08-.52,6.89,6.89,0,0,1-1-.75,5.22,5.22,0,0,1-.77-.88,3.64,3.64,0,0,1-.48-.94,2,2,0,0,1-.14-.9,2.83,2.83,0,0,1,.21-1.34,2.44,2.44,0,0,1,.7-.93,3.14,3.14,0,0,1,1-.55,4.14,4.14,0,0,1,1.21-.2h.15a3.31,3.31,0,0,0-.45,1.66,3.19,3.19,0,0,0,.3,1.37.48.48,0,0,0-.22.26.39.39,0,0,0-.07.31.59.59,0,0,0,.18.31,1.16,1.16,0,0,0,.41.26,2.23,2.23,0,0,0,.63.16h.06a5.17,5.17,0,0,0,6.45,0,13.66,13.66,0,0,1,1.66.21,6.12,6.12,0,0,1,2,.74,2.68,2.68,0,0,1,1.1,1.37A4,4,0,0,1,82.94,24.45Z"/><path class="cls-3" d="M89.79,14.38a2,2,0,0,1-.13.89,3.72,3.72,0,0,1-.49.92,5.15,5.15,0,0,1-.76.87,5.57,5.57,0,0,1-.94.74,4.92,4.92,0,0,1-1.06.51,3.26,3.26,0,0,1-1.08.2H84.18v0H82.56v0H71.24a1.14,1.14,0,0,0-.44.1s0,0-.06,0a3.19,3.19,0,0,1-.3-1.37,3.31,3.31,0,0,1,.45-1.66H84.18v0H85.8a.82.82,0,0,0,.72-.27.87.87,0,0,0,.12-.68,2.18,2.18,0,0,0-.37-.86,3.38,3.38,0,0,0-.76-.8l2.35-2.3c.21.24.43.5.65.78a7.86,7.86,0,0,1,.6.87,5.18,5.18,0,0,1,.45.95A3.59,3.59,0,0,1,89.79,14.38Z"/><path class="cls-4" d="M75.55,25.52a2.66,2.66,0,0,0,.23-.52,1.4,1.4,0,0,0,.06-.49,1.85,1.85,0,0,0-.1-.73,1.31,1.31,0,0,0-.32-.51,1.5,1.5,0,0,0-.48-.3,1.8,1.8,0,0,0-.56-.11H68.81v0a.23.23,0,0,1-.13,0,.19.19,0,0,1-.08-.07.14.14,0,0,1,0-.09.41.41,0,0,1,.05-.09,2.53,2.53,0,0,1,.4-.26c.18-.08.37-.17.58-.25a6.78,6.78,0,0,1,.68-.23c.23-.08.46-.14.69-.2l.62-.12a3.14,3.14,0,0,1,.47,0l1.16-1.6q-.6,0-1.23.15a9.08,9.08,0,0,0-1.27.32,8.46,8.46,0,0,0-1.21.48,5.75,5.75,0,0,0-1,.66,4.32,4.32,0,0,0-.79.87,2.87,2.87,0,0,0-.43,1.07.8.8,0,0,0,0,.47,1,1,0,0,0,.25.33,1.24,1.24,0,0,0,.36.19,1.23,1.23,0,0,0,.36.06h5.86a.66.66,0,0,1,.2.06.27.27,0,0,1,.13.16.25.25,0,0,1,0,.17.44.44,0,0,1-.08.17.72.72,0,0,1-.19.14.82.82,0,0,1-.29.08H66.64a5.5,5.5,0,0,1-1.23-.15,4.26,4.26,0,0,1-.49-.19.63.63,0,0,1-.3-.28,1.21,1.21,0,0,1-.14-.43,2.12,2.12,0,0,1,0-.51,4,4,0,0,1,.06-.51,3.26,3.26,0,0,1,.1-.42.87.87,0,0,1,.12-.27l-.6.25a6.57,6.57,0,0,0-.57,1.64,2.58,2.58,0,0,0,0,1.15,1.34,1.34,0,0,0,.51.75,2.48,2.48,0,0,0,.9.41,6,6,0,0,0,1.19.14h7.59a1.56,1.56,0,0,0,.5-.11,2.76,2.76,0,0,0,.5-.28A4.2,4.2,0,0,0,75.2,26,3.91,3.91,0,0,0,75.55,25.52Z"/><rect class="cls-4" x="86.95" y="27.7" width="1.32" height="1.52" transform="translate(5.54 70.29) rotate(-45)"/><path class="cls-4" d="M89.69,24a4.18,4.18,0,0,0-.21-.53,4.39,4.39,0,0,0-.27-.47q-.15-.22-.3-.42L87.83,23.8a2.12,2.12,0,0,1,.35.44,1.34,1.34,0,0,1,.17.47.56.56,0,0,1-.06.37.35.35,0,0,1-.33.15H81.35a4.19,4.19,0,0,0-.21-1.11,3.77,3.77,0,0,0-.54-1,1.34,1.34,0,0,0-.55-.48,1.14,1.14,0,0,0-.6-.08,1.65,1.65,0,0,0-.6.23,3.15,3.15,0,0,0-.58.47,3.44,3.44,0,0,0-.51.62,4.56,4.56,0,0,0-.41.7,4.44,4.44,0,0,0-.28.7,2.3,2.3,0,0,0-.09.6.65.65,0,0,0,.16.41,1.13,1.13,0,0,0,.39.27,2.84,2.84,0,0,0,.56.16l.65.08.64,0h.56a4,4,0,0,1-.84.54c-.31.15-.62.28-.94.4a8.46,8.46,0,0,1-1,.27c-.31.07-.61.13-.88.17s-.52.07-.74.08a4.25,4.25,0,0,1-.51,0s0,0,0,.07a2,2,0,0,0,.28.21l.45.26a4.82,4.82,0,0,0,.5.27l.46.21a.86.86,0,0,0,.32.08,3.56,3.56,0,0,0,.84-.1,5.87,5.87,0,0,0,.86-.3,5.4,5.4,0,0,0,.82-.44,4.47,4.47,0,0,0,.72-.53,3.57,3.57,0,0,0,.53-.59,1.74,1.74,0,0,0,.3-.59h6v0h.53a1.28,1.28,0,0,0,.49-.11,2.2,2.2,0,0,0,.49-.28,2.69,2.69,0,0,0,.43-.4,3.82,3.82,0,0,0,.35-.47,2.25,2.25,0,0,0,.22-.51,1.17,1.17,0,0,0,.06-.48A2.05,2.05,0,0,0,89.69,24Zm-10.85,1.2a.77.77,0,0,1-.5-.28c-.07-.13,0-.27.1-.44a2.15,2.15,0,0,1,.72-.52.42.42,0,0,1,.24.1,1.29,1.29,0,0,1,.2.25,1.48,1.48,0,0,1,.15.31,3.21,3.21,0,0,1,.12.31,1.58,1.58,0,0,1,.06.23c0,.07,0,.1,0,.09A4.06,4.06,0,0,1,78.84,25.17Z"/></svg>